<?xml version="1.0" standalone="no"?>
<!DOCTYPE svg PUBLIC "-//W3C//DTD SVG 20010904//EN"
 "http://www.w3.org/TR/2001/REC-SVG-20010904/DTD/svg10.dtd">
<svg version="1.0" xmlns="http://www.w3.org/2000/svg"
 width="1000.000000pt" height="1000.000000pt" viewBox="0 0 1000.000000 1000.000000"
 preserveAspectRatio="xMidYMid meet">

<g transform="translate(0.000000,1000.000000) scale(0.100000,-0.100000)"
fill="#000000" stroke="none">
<path d="M6526 8631 c-45 -30 -66 -70 -66 -126 0 -32 7 -60 19 -79 30 -45 70
-66 126 -66 32 0 60 7 79 19 45 30 66 70 66 126 0 56 -21 96 -66 126 -19 12
-47 19 -79 19 -32 0 -60 -7 -79 -19z"/>
<path d="M6480 7567 c0 -35 -3 -98 -6 -140 l-7 -77 54 19 c74 25 143 61 225
117 86 58 124 93 124 114 0 14 -21 16 -166 18 -92 0 -180 4 -195 7 l-29 7 0
-65z"/>
<path d="M6747 3532 c-9 -10 -24 -49 -33 -87 -14 -58 -17 -127 -18 -405 -1
-419 10 -529 129 -1310 63 -416 85 -603 85 -735 l0 -95 76 0 75 0 -5 42 c-3
24 -8 97 -11 163 -16 336 -41 605 -105 1135 -63 518 -99 890 -109 1107 -8 176
-15 203 -51 203 -9 0 -24 -8 -33 -18z"/>
<path d="M3569 2674 c-70 -97 -159 -182 -252 -241 -51 -31 -108 -69 -127 -84
-79 -61 -210 -121 -495 -223 -49 -18 -118 -39 -153 -46 -35 -7 -59 -16 -55
-20 21 -19 160 -43 273 -47 100 -4 149 -1 245 16 112 21 129 27 283 106 90 47
180 98 200 113 20 16 61 46 90 67 l52 39 -6 121 c-4 66 -9 149 -13 185 l-6 64
-36 -50z"/>
<path d="M4759 2522 c-1 -20 -3 -50 -4 -67 -5 -66 26 -455 71 -897 l48 -466
123 -7 c201 -12 548 10 564 36 13 21 10 105 -6 179 -25 113 -83 1113 -66 1134
9 10 -6 10 -71 -1 -173 -31 -425 5 -562 80 -96 52 -96 52 -97 9z"/>
</g>
</svg>
