<?xml version="1.0" standalone="no"?>
<!DOCTYPE svg PUBLIC "-//W3C//DTD SVG 20010904//EN"
 "http://www.w3.org/TR/2001/REC-SVG-20010904/DTD/svg10.dtd">
<svg version="1.0" xmlns="http://www.w3.org/2000/svg"
 width="675.000000pt" height="675.000000pt" viewBox="0 0 675.000000 675.000000"
 preserveAspectRatio="xMidYMid meet">

<g transform="translate(0.000000,675.000000) scale(0.100000,-0.100000)"
fill="#000000" stroke="none">
<path d="M3179 5883 c-1 -10 -1 -22 0 -26 1 -5 -9 -1 -21 7 -25 18 -42 21 -33
6 9 -15 -4 -12 -21 5 -17 17 -44 20 -44 5 0 -5 8 -10 18 -10 9 0 31 -11 47
-25 17 -14 22 -22 13 -19 -13 4 -16 1 -13 -15 4 -22 -9 -29 -20 -11 -4 6 -15
8 -24 5 -10 -3 -24 1 -31 10 -15 18 1 20 18 3 8 -8 12 -8 12 -1 0 13 -28 25
-41 17 -5 -3 -19 2 -31 10 -37 26 -42 18 -12 -21 l29 -38 -33 23 c-33 24 -46
20 -14 -4 22 -17 -1 -18 -28 -1 -17 10 -22 9 -30 -3 -13 -21 -12 -33 2 -24 7
4 8 3 4 -5 -4 -6 -2 -20 5 -29 11 -14 10 -14 -8 1 -12 10 -28 20 -37 21 -9 1
-32 17 -51 36 -19 19 -35 29 -35 24 0 -6 5 -15 11 -21 9 -9 7 -11 -5 -9 -9 1
-33 18 -53 37 -20 19 -31 25 -23 15 14 -18 13 -19 -4 -13 -16 6 -17 5 -7 -7 7
-8 19 -12 27 -9 9 3 12 0 9 -9 -4 -9 4 -22 19 -32 15 -9 26 -21 26 -27 0 -6
-12 -1 -26 10 -33 26 -56 28 -47 4 4 -11 3 -14 -6 -9 -6 4 -9 16 -6 26 3 10 0
20 -8 23 -8 3 -13 -4 -12 -22 0 -25 -2 -26 -45 -23 -24 1 -48 8 -52 15 -6 9
-8 9 -8 0 0 -13 40 -39 40 -26 1 4 9 -10 20 -32 10 -22 17 -41 16 -43 -8 -7
-36 12 -36 24 0 17 -16 18 -24 2 -4 -7 -4 -3 -2 10 3 16 -1 22 -14 22 -13 0
-20 9 -22 28 -2 22 -8 27 -30 27 -34 1 -34 1 -6 -25 26 -24 34 -60 16 -73 -10
-7 -9 -8 2 -4 9 3 25 -2 35 -10 19 -14 17 -14 -15 -8 -19 4 -40 14 -46 23 -6
9 -16 12 -23 7 -9 -5 -9 -2 0 14 10 15 16 17 22 8 6 -8 7 -6 3 6 -3 10 -6 21
-6 23 0 3 -5 2 -10 -1 -6 -3 -13 1 -16 9 -11 30 -27 17 -20 -16 l6 -32 -25 24
c-33 31 -50 17 -34 -28 13 -37 59 -74 142 -112 34 -16 59 -29 56 -30 -6 0 -59
16 -89 27 -19 8 -28 10 -68 19 -27 5 -31 4 -26 -10 3 -9 11 -16 18 -17 6 -1 0
-4 -14 -8 -14 -4 -30 -4 -37 1 -17 14 -62 -2 -68 -23 -8 -23 13 -52 31 -45 8
3 11 0 8 -8 -3 -8 -14 -12 -27 -9 -17 5 -20 3 -10 -7 9 -10 19 -10 44 -1 17 6
55 10 83 10 48 -1 49 -2 16 -8 -20 -4 -42 -11 -50 -16 -8 -5 -24 -9 -35 -8
-11 2 -14 0 -7 -3 23 -10 1 -24 -39 -24 -21 0 -39 -4 -39 -10 0 -5 -7 -10 -15
-10 -8 0 -15 4 -15 9 0 5 -15 9 -34 8 -30 -2 -32 -4 -20 -17 8 -8 24 -28 36
-43 11 -16 30 -33 42 -37 17 -7 14 -9 -19 -11 -22 -2 -49 -2 -61 -2 -17 1 -20
-3 -16 -23 3 -15 0 -24 -8 -24 -10 0 -9 -4 2 -17 8 -10 15 -27 15 -38 2 -35 7
-49 23 -63 21 -17 -32 2 -80 29 -27 15 -29 16 -10 2 13 -10 44 -33 67 -50 24
-18 48 -33 54 -33 5 0 8 -4 4 -10 -3 -5 -12 -7 -20 -3 -10 3 -15 -1 -15 -14 0
-11 -10 -25 -22 -31 -13 -6 -17 -11 -9 -11 11 -1 10 -5 -5 -16 -18 -14 -18
-14 11 -15 l30 -2 -33 -14 c-38 -17 -34 -37 6 -28 21 4 24 3 11 -5 -9 -6 -38
-12 -63 -13 -60 -2 -71 -18 -14 -19 41 -1 42 -1 17 -12 -14 -7 -24 -18 -22
-24 3 -7 1 -13 -4 -13 -5 0 -18 -7 -29 -16 -18 -15 -18 -15 3 -5 12 6 30 11
40 11 17 -1 17 -1 1 -14 -22 -16 -23 -26 -4 -26 19 0 14 -24 -9 -50 -14 -16
-16 -23 -7 -29 9 -5 7 -13 -8 -29 -11 -11 -17 -28 -14 -36 3 -9 -1 -34 -10
-56 -13 -34 -14 -40 -1 -47 18 -10 24 -101 7 -112 -12 -7 -17 -30 -14 -65 1
-12 7 -16 17 -12 13 5 14 -3 10 -51 -4 -39 -2 -59 7 -64 6 -4 12 -24 11 -43
-1 -20 3 -34 7 -31 18 11 31 -37 34 -125 2 -49 0 -93 -5 -96 -5 -3 2 -19 16
-36 14 -16 25 -38 25 -49 0 -10 5 -19 10 -19 6 0 10 -6 10 -13 0 -6 14 -25 30
-40 24 -23 30 -37 30 -72 0 -48 24 -115 42 -115 7 0 9 17 5 53 -3 34 0 64 9
85 7 18 14 50 15 70 1 20 7 46 13 57 12 23 14 38 21 157 3 48 10 99 16 115 16
41 27 123 18 123 -5 0 -9 8 -9 19 0 10 -9 25 -21 32 -15 10 -20 25 -21 56 0
25 -5 41 -11 40 -13 -2 -14 45 -3 83 7 24 6 24 -8 6 -14 -17 -16 -17 -16 -4 0
9 5 20 10 23 6 4 8 10 5 15 -3 5 -1 11 5 15 6 4 8 11 4 16 -3 5 -10 7 -15 4
-15 -10 2 29 19 43 9 6 12 12 8 12 -5 0 -3 7 4 15 7 9 8 15 2 15 -5 0 11 39
36 86 43 81 121 172 170 202 27 15 32 15 32 -1 0 -8 6 -14 14 -14 8 0 12 6 9
13 -3 8 2 11 16 7 13 -3 24 2 33 16 14 22 34 26 57 12 12 -8 11 -13 -10 -30
-31 -27 -19 -26 26 0 21 13 56 22 89 24 29 1 58 5 64 9 7 4 12 2 12 -3 0 -6 6
-10 13 -8 7 1 11 -6 9 -17 -3 -18 -2 -18 13 -6 9 8 33 15 52 16 29 1 38 -4 54
-30 20 -32 27 -29 9 5 -6 11 -7 19 -1 19 5 0 12 -12 15 -26 l7 -27 15 22 c8
11 24 21 35 21 12 0 19 7 19 18 0 11 8 18 21 19 17 2 20 -2 15 -22 -4 -14 -1
-25 7 -28 14 -5 39 18 30 27 -4 3 -1 6 5 6 7 0 12 -6 12 -14 0 -8 7 -16 15
-20 8 -3 15 -13 16 -23 0 -14 2 -13 9 5 11 25 30 30 30 6 0 -8 4 -13 9 -10 5
4 12 0 14 -6 3 -8 6 -6 6 5 1 25 15 21 31 -8 7 -14 17 -25 22 -25 4 0 8 -8 8
-18 0 -10 5 -23 12 -30 10 -10 15 -7 25 10 12 23 13 23 18 3 9 -31 42 -29 50
3 10 41 30 67 70 90 35 22 35 22 55 2 11 -11 20 -15 20 -10 0 6 7 10 16 10 8
0 13 4 10 9 -3 5 8 11 24 13 17 3 30 0 30 -6 0 -6 5 -3 11 7 11 19 49 24 49 6
0 -8 5 -8 15 1 12 10 15 10 15 -1 0 -8 5 -6 13 5 10 14 23 17 45 14 18 -2 32
-1 32 4 0 5 15 9 33 9 17 0 50 1 72 1 96 2 133 -18 175 -93 28 -52 83 -129 92
-129 4 0 8 -7 8 -15 0 -8 5 -15 10 -15 6 0 10 -7 10 -15 0 -9 7 -27 16 -41 9
-13 14 -28 10 -31 -3 -4 4 -17 16 -30 12 -13 18 -23 14 -23 -5 0 -3 -7 4 -15
7 -8 10 -21 7 -30 -4 -8 -2 -17 2 -20 5 -2 12 -20 15 -39 4 -19 13 -39 21 -46
18 -15 20 1 3 18 -9 9 -9 12 0 12 9 0 8 9 -3 36 -18 44 -18 41 -1 41 8 0 14
-3 13 -6 -3 -14 15 -50 28 -55 17 -6 27 34 21 82 -3 22 0 32 9 32 27 0 34 93
10 159 -8 23 -12 49 -9 59 5 13 4 14 -4 3 -13 -17 -24 1 -15 25 5 13 3 16 -9
11 -10 -3 -19 0 -22 9 -3 9 -1 12 4 9 6 -3 10 -2 10 4 0 11 -21 27 -92 71 -45
27 -64 60 -36 60 8 0 6 6 -4 17 -16 15 -16 17 0 29 16 12 16 13 -2 14 -11 0
-16 3 -12 7 3 4 -6 12 -21 19 -19 8 -22 13 -10 13 15 1 18 6 16 29 0 4 -6 6
-13 4 -10 -2 -12 8 -9 34 3 33 2 35 -19 29 -20 -6 -20 -4 7 20 17 15 24 23 16
19 -11 -5 -10 -1 2 17 22 31 21 38 -3 32 -18 -5 -25 5 -21 30 1 5 -8 11 -20
14 -18 5 -21 11 -16 44 4 28 2 37 -6 32 -7 -4 -6 1 2 10 13 16 9 31 -7 32 -4
1 -16 5 -27 11 -23 11 -45 12 -62 1 -9 -6 -13 -2 -13 10 -1 17 -1 17 -14 1
-18 -24 -26 -23 -26 3 0 15 -4 19 -16 15 -12 -5 -14 -3 -7 6 5 7 15 26 22 42
11 26 10 28 -3 16 -11 -9 -16 -9 -16 -1 0 6 -11 16 -25 21 -14 5 -30 20 -35
32 -7 18 -9 19 -9 6 -1 -19 -21 -26 -21 -8 0 6 -7 10 -15 10 -8 0 -15 5 -15
10 0 6 -3 9 -7 8 -14 -4 -57 14 -77 31 -11 9 -16 11 -13 5 8 -14 -20 -27 -28
-13 -4 5 -11 7 -16 3 -6 -3 -13 3 -16 15 -6 25 -23 28 -23 4 0 -10 -4 -14 -8
-8 -4 6 -17 19 -30 29 l-22 19 6 -34 7 -34 -54 50 c-30 28 -65 60 -78 70 -22
18 -24 18 -18 3 6 -17 -4 -23 -28 -18 -5 1 3 -11 19 -27 16 -16 31 -40 33 -54
2 -20 -4 -17 -42 25 -25 27 -45 52 -45 56 0 5 -7 11 -16 14 -14 5 -15 4 -4 -9
7 -8 10 -15 6 -15 -4 0 1 -12 11 -27 l17 -28 -34 30 c-56 50 -70 65 -69 71 0
3 -2 8 -5 12 -3 3 -6 0 -6 -6 0 -7 -10 -12 -21 -12 -18 0 -19 -2 -9 -15 19
-23 3 -18 -20 7 -11 12 -20 19 -20 15 0 -4 -9 1 -19 11 -49 44 -51 45 -51 17
l0 -26 -45 31 c-39 27 -45 29 -46 13z m-474 -161 c-2 -3 -12 -1 -22 2 -15 6
-15 9 -3 16 13 8 35 -8 25 -18z m125 8 c0 -5 -2 -10 -4 -10 -3 0 -8 5 -11 10
-3 6 -1 10 4 10 6 0 11 -4 11 -10z m-346 -46 c4 -10 1 -14 -6 -12 -15 5 -23
28 -10 28 5 0 13 -7 16 -16z m-84 -136 c0 -13 -23 -5 -28 10 -2 7 2 10 12 6 9
-3 16 -11 16 -16z m49 -9 c11 -19 11 -21 -4 -15 -9 3 -19 6 -21 6 -2 0 -4 7
-4 15 0 21 13 19 29 -6z m114 -86 c-7 -2 -21 -2 -30 0 -10 3 -4 5 12 5 17 0
24 -2 18 -5z m-113 -28 c10 -12 10 -15 -3 -15 -8 0 -17 7 -21 15 -3 8 -2 15 3
15 5 0 14 -7 21 -15z m79 -11 c2 -2 -10 -4 -27 -4 -18 0 -32 5 -32 10 0 9 47
4 59 -6z m-224 -114 c8 -13 -5 -13 -25 0 -13 8 -13 10 2 10 9 0 20 -4 23 -10z
m-153 -668 c-7 -2 -12 -10 -12 -18 0 -8 -4 -14 -9 -14 -9 0 -9 7 4 49 7 21 9
22 18 5 7 -13 7 -19 -1 -22z m5 -74 c-3 -7 -5 -2 -5 12 0 14 2 19 5 13 2 -7 2
-19 0 -25z m-6 -142 c-19 -18 -19 -17 -16 40 4 77 4 77 20 24 13 -41 13 -46
-4 -64z m49 44 c0 -5 -5 -10 -11 -10 -5 0 -7 5 -4 10 3 6 8 10 11 10 2 0 4 -4
4 -10z m-24 -78 c-8 -9 -19 -12 -23 -8 -4 4 -1 11 7 16 8 6 11 10 7 10 -4 0
-2 10 5 23 l13 22 3 -24 c2 -13 -3 -31 -12 -39z"/>
<path d="M2290 5795 c0 -15 18 -40 24 -34 3 3 -1 14 -9 25 -8 10 -14 15 -15 9z"/>
<path d="M2860 5791 c0 -5 5 -13 10 -16 6 -3 10 -2 10 4 0 5 -4 13 -10 16 -5
3 -10 2 -10 -4z"/>
<path d="M2206 5391 c-4 -6 3 -15 14 -21 23 -12 27 2 6 19 -9 8 -16 8 -20 2z"/>
<path d="M2240 5340 c0 -5 5 -10 11 -10 5 0 7 5 4 10 -3 6 -8 10 -11 10 -2 0
-4 -4 -4 -10z"/>
<path d="M4521 4554 c0 -11 3 -14 6 -6 3 7 2 16 -1 19 -3 4 -6 -2 -5 -13z"/>
<path d="M4550 4520 c0 -11 4 -20 9 -20 5 0 7 9 4 20 -3 11 -7 20 -9 20 -2 0
-4 -9 -4 -20z"/>
<path d="M4519 4294 c-1 -60 -2 -64 -10 -34 -4 19 -6 42 -3 52 3 9 0 19 -6 23
-9 6 -15 -17 -10 -40 1 -5 4 -21 7 -34 7 -38 14 -44 32 -27 14 13 16 26 11 66
-10 75 -20 72 -21 -6z"/>
<path d="M4105 4202 c-33 -7 -80 -17 -104 -23 -25 -5 -52 -15 -60 -23 -19 -16
-85 -30 -76 -16 8 12 3 12 -28 1 -14 -6 -28 -19 -32 -31 -3 -11 -10 -18 -15
-15 -10 6 -33 -22 -26 -33 3 -5 -5 -19 -18 -31 -20 -19 -28 -21 -44 -12 -24
13 -43 15 -23 2 11 -7 11 -16 -4 -55 -22 -56 -15 -113 20 -164 14 -20 25 -31
25 -24 0 6 4 12 10 12 5 0 7 -7 4 -15 -12 -30 12 -14 30 20 20 36 16 51 -23
81 -8 6 -11 16 -7 22 9 15 36 4 30 -13 -3 -7 -1 -16 5 -19 14 -9 165 -11 179
-2 7 4 12 2 12 -5 0 -7 11 -9 35 -5 19 4 35 3 35 -2 0 -9 53 -2 115 16 17 4
56 8 88 8 40 -1 57 3 57 12 0 7 -6 15 -14 18 -8 3 -12 12 -9 19 2 8 -9 27 -26
44 -25 24 -42 31 -96 36 -37 4 -102 5 -146 3 -44 -3 -82 -2 -84 2 -7 12 90 50
172 68 52 11 77 13 81 5 12 -18 88 -26 114 -11 13 7 28 14 33 14 6 1 13 2 18
3 4 0 0 12 -9 26 -16 24 -15 25 6 25 20 0 17 5 -20 37 -37 33 -49 38 -94 38
-28 0 -78 -6 -111 -13z m-135 -272 c0 -5 -5 -10 -11 -10 -5 0 -7 5 -4 10 3 6
8 10 11 10 2 0 4 -4 4 -10z m152 -4 c15 -11 14 -14 -13 -30 -36 -21 -39 -20
-32 17 6 29 19 33 45 13z m-222 -37 c0 -20 -23 -25 -55 -13 -14 6 -12 10 11
25 31 20 44 17 44 -12z"/>
<path d="M4450 4186 c0 -8 7 -16 15 -20 13 -4 14 -2 5 14 -13 23 -20 26 -20 6z"/>
<path d="M2747 4152 c-16 -2 -25 -8 -21 -14 4 -7 2 -8 -5 -4 -7 5 -27 -7 -49
-30 -20 -20 -32 -34 -25 -30 6 3 14 2 18 -4 3 -5 -2 -10 -12 -11 -17 0 -17 -1
0 -8 10 -4 17 -11 15 -16 -5 -15 44 -19 53 -4 4 7 22 12 41 12 46 0 282 -13
343 -19 89 -8 93 -9 101 -16 4 -5 14 -8 23 -8 14 0 14 2 1 10 -12 8 -9 10 13
10 30 0 36 14 11 24 -9 4 -14 9 -11 13 4 3 14 0 22 -7 11 -9 19 -10 27 -2 7 7
2 21 -17 47 -19 24 -31 32 -36 24 -5 -10 -14 -9 -38 1 -19 8 -50 10 -79 7 -29
-4 -39 -3 -27 2 40 17 -27 23 -77 7 -27 -8 -46 -10 -43 -6 11 18 -148 33 -228
22z"/>
<path d="M4450 4110 c0 -5 5 -10 11 -10 5 0 7 5 4 10 -3 6 -8 10 -11 10 -2 0
-4 -4 -4 -10z"/>
<path d="M4490 4073 c0 -28 12 -63 20 -63 11 0 21 46 14 64 -8 22 -34 20 -34
-1z"/>
<path d="M3185 3984 c-6 -7 -45 -12 -85 -13 -41 0 -78 -5 -84 -11 -7 -7 -4
-10 10 -11 10 -1 -6 -5 -36 -9 -30 -4 -64 -11 -75 -14 -11 -4 -4 2 15 13 34
20 34 20 9 21 -27 0 -130 -29 -139 -40 -3 -3 -18 -13 -33 -23 -78 -50 -17 -91
106 -71 31 6 36 10 32 25 -8 23 20 27 29 4 3 -8 1 -15 -3 -15 -5 0 -7 -9 -4
-20 3 -11 9 -17 14 -14 5 3 18 0 30 -6 17 -10 21 -8 26 9 4 16 9 18 23 11 9
-5 20 -6 24 -3 3 4 13 -2 21 -13 8 -11 14 -14 15 -6 0 10 4 10 19 0 11 -7 17
-16 15 -20 -13 -21 49 -5 78 21 18 15 43 34 56 40 13 7 21 18 18 26 -6 17 35
45 66 45 20 0 17 6 -25 44 -50 44 -96 56 -122 30z m-165 -88 c0 -3 -4 -8 -10
-11 -5 -3 -10 -1 -10 4 0 6 5 11 10 11 6 0 10 -2 10 -4z m131 -22 c10 -13 10
-17 -2 -25 -23 -14 -39 -10 -39 9 0 34 20 42 41 16z"/>
<path d="M3905 3801 c6 -5 24 -13 40 -17 39 -9 30 0 -15 15 -19 6 -30 7 -25 2z"/>
<path d="M4531 3684 c0 -11 3 -14 6 -6 3 7 2 16 -1 19 -3 4 -6 -2 -5 -13z"/>
<path d="M2256 3674 c-9 -22 -7 -54 2 -54 15 0 32 24 32 47 0 26 -25 31 -34 7z"/>
<path d="M4530 3638 c0 -19 2 -20 10 -8 13 19 13 30 0 30 -5 0 -10 -10 -10
-22z"/>
<path d="M3777 3574 c-10 -11 6 -38 45 -75 36 -34 43 -54 38 -104 -4 -40 -21
-48 -83 -41 -53 5 -60 4 -84 -20 -14 -14 -27 -23 -30 -20 -3 3 -15 0 -26 -6
-12 -6 -33 -11 -48 -10 -19 0 -26 -4 -23 -12 3 -8 -5 -16 -18 -20 -14 -5 -18
-9 -10 -13 6 -2 12 -11 12 -19 0 -8 5 -14 11 -14 5 0 7 -4 4 -10 -11 -18 10
-11 45 15 31 23 77 35 67 18 -5 -7 37 -7 123 0 14 1 32 8 40 15 8 7 28 23 43
37 15 14 31 25 35 25 4 0 12 12 19 26 11 23 9 34 -12 78 -25 51 -97 136 -115
136 -6 0 -10 5 -10 10 0 11 -13 13 -23 4z"/>
<path d="M2292 3400 c13 -20 38 -28 38 -12 0 12 -23 32 -37 32 -11 0 -11 -4
-1 -20z"/>
<path d="M3380 3330 c-24 -4 -53 -5 -62 -2 -10 2 -18 2 -18 -1 0 -7 42 -33 67
-41 18 -6 22 -4 17 8 -5 13 3 16 53 16 33 0 64 -5 71 -12 9 -9 15 -9 25 1 10
10 8 15 -7 27 -21 15 -71 16 -146 4z"/>
<path d="M2931 3086 c-13 -13 -21 -32 -19 -42 2 -15 8 -10 26 20 27 46 24 55
-7 22z"/>
<path d="M3990 3083 c0 -22 -50 -37 -130 -39 -102 -3 -179 -10 -202 -19 -11
-5 -18 -2 -18 5 0 10 -3 10 -15 0 -10 -8 -65 -14 -168 -16 -83 -2 -207 -7
-274 -10 -91 -5 -127 -3 -138 6 -24 20 -45 4 -45 -35 0 -20 4 -34 9 -30 6 3
16 -1 23 -9 11 -12 15 -12 31 1 15 15 19 15 35 1 23 -21 70 -44 128 -64 42
-14 150 -19 232 -10 12 1 45 -1 72 -4 28 -4 50 -3 50 1 0 5 17 2 38 -5 41 -14
66 -11 55 7 -4 7 -1 7 9 -1 11 -9 31 -11 65 -6 26 3 54 6 61 7 6 0 12 4 12 8
0 4 9 5 19 2 13 -3 38 13 83 53 65 60 118 115 118 124 -1 9 -50 41 -50 33z
m-150 -80 c0 -20 -22 -83 -28 -83 -5 0 -13 5 -18 10 -8 8 -15 6 -24 -5 -7 -8
-24 -15 -39 -15 -15 0 -31 -4 -37 -10 -5 -5 -61 -10 -124 -10 -166 -2 -210 3
-224 22 -12 16 -14 16 -29 1 -15 -15 -18 -15 -34 0 -13 11 -23 13 -33 7 -22
-14 -26 -13 -39 17 -14 31 0 56 21 35 16 -16 28 -15 28 3 0 17 36 20 60 5 10
-6 20 -4 32 6 11 11 24 13 40 8 12 -4 49 -6 80 -5 32 1 66 -4 76 -10 15 -10
24 -9 43 4 30 22 85 22 97 1 8 -14 10 -14 21 0 15 18 42 21 57 6 8 -8 15 -6
24 5 13 15 50 21 50 8z m-645 -53 c3 -5 2 -10 -4 -10 -5 0 -13 5 -16 10 -3 6
-2 10 4 10 5 0 13 -4 16 -10z"/>
<path d="M2732 2458 c2 -7 -5 -12 -14 -12 -14 1 -15 -2 -6 -16 7 -10 18 -16
27 -13 11 4 10 1 -3 -9 -17 -13 -18 -17 -5 -33 50 -61 185 -164 216 -165 6 0
19 -10 27 -22 9 -12 16 -19 16 -14 0 5 8 2 18 -6 9 -9 28 -19 42 -23 14 -4 36
-15 50 -25 27 -19 107 -57 130 -62 8 -2 17 -6 20 -9 6 -8 87 -49 96 -49 3 0 4
8 2 18 -5 18 -3 18 81 0 124 -26 214 -31 271 -14 27 8 50 12 53 10 2 -3 29 8
58 25 46 25 56 35 64 69 6 24 23 50 43 66 17 16 30 32 26 37 -3 5 2 12 11 15
9 4 14 13 11 20 -3 8 -1 14 5 14 6 0 8 4 4 9 -3 5 -1 12 5 16 5 3 10 11 10 17
0 7 -6 6 -15 -2 -8 -7 -15 -16 -15 -21 0 -5 -9 -18 -21 -30 -15 -15 -24 -18
-32 -10 -8 8 -8 11 1 11 7 0 12 4 12 9 0 5 -9 7 -20 4 -11 -3 -31 2 -45 11
-14 9 -25 13 -25 8 0 -5 -9 -19 -20 -32 -11 -13 -20 -19 -20 -15 0 4 -9 -2
-20 -15 -16 -19 -22 -20 -35 -10 -12 10 -16 9 -21 -4 -3 -9 -10 -13 -16 -10
-5 3 -7 12 -5 18 3 7 -1 13 -9 13 -8 0 -14 -9 -14 -19 0 -11 -4 -17 -9 -13 -6
3 -8 15 -6 26 3 16 1 18 -9 10 -7 -6 -16 -8 -19 -4 -4 3 -8 -5 -8 -18 -1 -19
-2 -20 -6 -5 -4 15 -7 16 -14 5 -8 -12 -12 -11 -23 4 -10 12 -16 15 -21 7 -4
-6 -13 -9 -20 -6 -15 5 -58 -27 -49 -37 6 -6 -7 -4 -48 8 -16 4 -25 11 -22 16
3 5 0 9 -5 9 -6 0 -11 -4 -11 -9 0 -5 -7 -12 -16 -15 -8 -3 -13 -2 -11 2 3 4
-1 13 -9 19 -7 7 -15 9 -19 4 -7 -12 -22 -9 -60 10 -16 9 -39 14 -49 11 -14
-3 -17 0 -13 12 4 10 1 16 -7 16 -8 0 -17 8 -20 17 -6 15 -8 15 -17 3 -8 -13
-13 -11 -32 10 -12 14 -31 25 -42 25 -11 -1 -23 4 -28 10 -4 5 -5 -3 -3 -19 6
-31 -16 -61 -37 -53 -9 4 -9 6 1 6 6 1 12 6 12 12 0 5 -4 8 -9 5 -4 -3 -19 3
-31 14 -13 11 -18 20 -12 20 7 0 12 5 12 11 0 5 -4 7 -10 4 -5 -3 -10 -1 -10
4 0 6 -4 11 -10 11 -5 0 -10 -9 -10 -20 0 -23 -15 -27 -24 -5 -3 8 -13 15 -22
15 -10 0 -14 5 -10 16 3 8 2 13 -3 9 -11 -6 -71 26 -71 38 0 5 -4 5 -10 2 -5
-3 -10 1 -10 9 0 9 -13 18 -36 22 -20 4 -31 10 -25 13 6 4 3 11 -9 19 -16 10
-20 10 -18 0z m53 -88 c3 -5 1 -10 -4 -10 -6 0 -11 5 -11 10 0 6 2 10 4 10 3
0 8 -4 11 -10z m310 -138 c-3 -3 -11 0 -18 7 -9 10 -8 11 6 5 10 -3 15 -9 12
-12z m808 -24 c-13 -6 -23 -15 -23 -20 0 -4 -5 -8 -10 -8 -7 0 -7 6 0 20 6 11
20 20 33 19 l22 0 -22 -11z"/>
<path d="M3680 2440 c0 -5 5 -10 10 -10 6 0 10 5 10 10 0 6 -4 10 -10 10 -5 0
-10 -4 -10 -10z"/>
<path d="M2685 2410 c3 -5 10 -10 16 -10 5 0 9 5 9 10 0 6 -7 10 -16 10 -8 0
-12 -4 -9 -10z"/>
<path d="M3003 2383 c-7 -3 -13 -9 -13 -14 0 -4 7 -6 15 -3 9 4 23 -3 34 -15
10 -11 21 -18 25 -14 10 10 7 23 -6 23 -6 0 -19 6 -27 14 -9 7 -22 11 -28 9z"/>
<path d="M4022 2361 c-10 -6 -9 -11 4 -22 10 -8 15 -9 11 -2 -4 6 -2 13 5 15
7 3 8 7 2 11 -5 3 -16 2 -22 -2z"/>
<path d="M3145 2350 c-3 -5 -1 -10 4 -10 6 0 11 5 11 10 0 6 -2 10 -4 10 -3 0
-8 -4 -11 -10z"/>
<path d="M2475 2313 c-10 -14 -33 -41 -51 -60 -37 -37 -44 -76 -19 -109 20
-26 19 -40 -2 -23 -45 36 -59 38 -79 16 -28 -32 -50 -74 -94 -172 -10 -24 -29
-46 -46 -55 -47 -23 -64 -41 -74 -81 -7 -26 -17 -39 -34 -43 -13 -3 -26 -14
-28 -24 -3 -10 -32 -31 -64 -47 -32 -16 -77 -40 -99 -53 -74 -47 -574 -292
-595 -292 -11 0 -20 -4 -20 -10 0 -5 -6 -7 -14 -4 -7 3 -26 -8 -42 -23 -16
-16 -69 -57 -118 -92 -50 -35 -101 -74 -115 -88 -24 -22 -160 -123 -237 -175
-18 -12 -34 -26 -34 -31 0 -9 35 13 125 78 107 78 239 167 298 199 28 16 65
42 81 59 45 47 239 150 597 315 47 22 105 46 130 53 24 7 59 24 78 36 51 35
56 28 14 -18 -58 -64 -64 -69 -74 -69 -16 0 -58 -43 -52 -53 4 -6 -13 -8 -48
-4 -30 3 -47 3 -37 1 9 -3 19 -12 22 -21 4 -11 2 -14 -9 -9 -8 3 -15 1 -15 -5
0 -5 -21 -8 -50 -5 -44 4 -49 3 -47 -14 5 -29 14 -34 32 -16 19 18 41 21 50 6
4 -6 3 -10 -2 -9 -23 4 -43 -2 -37 -12 4 -7 -4 -10 -22 -7 -23 2 -28 -1 -26
-14 2 -13 -5 -16 -28 -16 -17 1 -36 -5 -43 -12 -9 -10 -9 -11 1 -6 6 4 12 3
12 -3 0 -6 -11 -13 -25 -17 -22 -6 -24 -8 -10 -18 14 -10 14 -12 -4 -13 -11
-1 -23 2 -26 8 -9 14 -25 11 -25 -6 0 -9 -9 -15 -22 -15 -17 0 -19 -3 -10 -12
14 -14 -2 -48 -23 -48 -24 0 -65 -22 -58 -32 3 -6 -4 -5 -15 1 -30 16 -39 13
-16 -5 10 -8 13 -13 7 -9 -8 4 -13 -1 -14 -12 0 -10 -3 -13 -6 -5 -7 18 -18
15 -50 -12 -22 -18 -33 -22 -44 -14 -11 8 -10 9 4 4 11 -3 20 0 23 9 3 8 14
17 25 20 10 4 19 11 19 16 0 15 -19 10 -39 -10 -16 -16 -20 -17 -25 -5 -3 8
-13 14 -21 14 -9 0 -13 -5 -9 -11 4 -7 0 -9 -14 -5 -17 6 -20 3 -15 -16 4 -18
3 -20 -6 -8 -8 11 -11 12 -11 2 0 -7 -5 -10 -11 -7 -6 4 -7 19 -4 36 4 18 3
29 -4 29 -6 0 -11 -5 -11 -10 0 -6 -22 -32 -48 -58 -26 -26 -51 -55 -55 -65
-6 -17 -21 -21 -62 -18 -15 2 -17 0 -6 -7 15 -11 13 -14 -34 -65 -11 -12 -19
-25 -17 -30 1 -4 -2 -7 -8 -7 -18 0 -11 28 9 35 21 6 34 31 26 46 -4 5 -16 0
-27 -11 -12 -11 -25 -20 -29 -20 -10 0 -79 -65 -79 -74 0 -4 12 2 26 13 35 27
42 26 36 -5 -3 -15 -10 -23 -17 -20 -17 6 -53 -25 -48 -41 3 -7 -4 -13 -14
-14 -10 0 -13 -3 -5 -6 22 -9 2 -23 -24 -17 -17 4 -24 2 -24 -9 0 -8 -7 -18
-16 -21 -10 -4 -13 -13 -9 -26 4 -11 2 -20 -4 -20 -13 0 -55 -40 -44 -41 5 -1
-3 -4 -17 -8 -14 -4 -25 -13 -25 -21 0 -8 -7 -16 -15 -16 -8 -1 -21 -2 -29 -3
-8 -1 -11 -7 -7 -17 4 -11 2 -15 -8 -11 -10 4 -13 1 -9 -9 3 -9 -1 -14 -13
-15 -11 0 -14 -3 -6 -6 22 -9 2 -23 -24 -17 -17 4 -24 2 -24 -8 0 -7 -9 -19
-20 -26 -11 -7 -20 -17 -20 -23 0 -5 5 -7 10 -4 6 3 10 1 10 -6 0 -7 -8 -9
-21 -6 -16 4 -18 3 -9 -8 9 -10 6 -15 -10 -20 -11 -3 -18 -10 -15 -15 3 -4 -1
-8 -8 -7 -41 1 -49 -3 -37 -18 10 -12 9 -16 -4 -21 -9 -3 -23 -1 -30 5 -14 12
-29 1 -32 -24 0 -5 -2 -17 -3 -25 -1 -12 -3 -12 -10 -2 -14 23 -40 -93 -51
-228 -5 -69 -12 -144 -16 -167 l-5 -43 2865 0 c1576 0 2866 1 2866 3 0 3 -46
128 -59 162 -53 130 -115 250 -128 248 -5 -1 -8 8 -5 22 3 16 -2 28 -17 37
-12 7 -21 19 -21 26 0 6 -16 35 -35 62 -20 28 -54 81 -77 118 -22 37 -58 84
-79 106 -22 21 -39 45 -39 53 0 9 -6 13 -14 10 -7 -3 -20 3 -29 14 -9 10 -21
19 -26 19 -18 0 -2 -45 44 -125 25 -44 45 -83 45 -87 0 -16 -10 -7 -25 22 -49
95 -286 358 -381 424 -17 11 -49 34 -72 49 -22 16 -46 30 -54 31 -29 6 -78 33
-71 39 12 13 -13 7 -26 -6 -11 -9 -13 -9 -7 1 9 16 -16 16 -32 0 -15 -15 -16
-32 -2 -23 6 3 10 1 10 -4 0 -6 -16 -11 -36 -11 -21 0 -33 -4 -29 -10 3 -5 1
-10 -4 -10 -6 0 -11 4 -11 10 0 5 -6 7 -14 4 -7 -3 -16 2 -20 11 -3 9 -14 15
-23 14 -41 -4 -52 1 -48 21 2 11 7 25 10 30 4 6 -6 10 -24 10 -16 0 -32 4 -35
9 -6 10 -31 9 -41 -1 -3 -3 1 -11 10 -18 8 -7 15 -19 15 -27 0 -11 4 -11 21
-3 11 7 23 9 27 6 3 -3 0 -6 -7 -6 -9 0 -9 -5 -1 -21 10 -19 10 -20 -9 -10
-12 7 -22 7 -25 2 -4 -5 -1 -11 6 -13 20 -7 -1 -26 -22 -21 -11 3 -17 9 -14
14 3 5 -2 9 -10 9 -8 0 -18 9 -21 20 -3 11 -10 20 -15 20 -5 0 -25 16 -46 35
-20 19 -39 35 -41 35 -3 0 -2 -12 2 -27 l6 -28 -23 24 c-16 16 -19 25 -10 28
19 7 14 21 -10 26 -20 4 -19 4 5 6 15 0 27 -3 27 -9 0 -5 9 -10 21 -10 11 0
17 5 14 10 -4 6 -10 8 -15 5 -4 -3 -10 1 -13 9 -4 10 -17 13 -47 9 -34 -5 -44
-2 -56 16 -9 12 -22 20 -31 19 -8 -2 -19 7 -24 20 -7 18 -5 22 11 22 13 0 17
-5 14 -15 -5 -11 1 -14 25 -12 17 1 33 8 36 15 3 8 10 10 17 6 7 -4 2 4 -12
19 -14 15 -30 27 -36 27 -6 0 -23 14 -38 31 -15 17 -29 29 -32 27 -2 -2 1 -21
7 -42 6 -21 9 -40 7 -42 -4 -3 -12 12 -49 90 -8 16 -22 31 -31 34 -17 4 -39
32 -65 82 -7 14 -17 25 -22 25 -6 0 -17 9 -26 20 -9 11 -13 14 -9 6 4 -7 3
-12 -2 -9 -48 21 -64 33 -64 46 0 10 8 13 30 10 17 -3 30 -1 30 4 0 4 -6 8
-13 8 -7 0 -26 19 -41 43 -25 37 -27 46 -17 72 14 41 7 119 -18 180 -17 44
-20 46 -22 23 -9 -143 -41 -382 -60 -448 -19 -64 -64 -130 -90 -130 -7 0 -21
-8 -32 -17 -19 -17 -20 -17 -14 0 7 18 -8 24 -18 7 -4 -6 -12 -8 -18 -4 -7 3
-4 -1 6 -9 12 -10 14 -17 8 -22 -6 -3 -11 -1 -11 4 0 6 -13 11 -30 11 -23 0
-30 -5 -30 -19 0 -15 -6 -19 -26 -16 -15 1 -28 -3 -31 -11 -3 -8 -9 -11 -15
-8 -5 3 -12 -3 -15 -15 -3 -11 -9 -18 -14 -15 -5 3 -19 -1 -31 -8 -30 -16 -45
-13 -126 23 -161 72 -394 204 -607 344 -49 33 -93 59 -97 60 -4 0 -46 36 -94
79 -74 68 -92 91 -124 160 -21 45 -42 90 -46 101 -7 19 -8 19 -12 -3 -2 -17
-8 -22 -19 -17 -9 3 -20 0 -25 -7 -6 -10 -8 -8 -8 5 0 9 14 43 30 74 31 58 39
120 18 141 -17 17 -24 15 -43 -15z m1654 -862 c47 -59 62 -91 43 -91 -4 0 -16
17 -27 37 -11 20 -28 44 -37 53 -9 8 -22 29 -28 45 -6 16 -9 27 -7 25 3 -3 28
-34 56 -69z m268 -123 c-3 -7 -5 -2 -5 12 0 14 2 19 5 13 2 -7 2 -19 0 -25z
m-233 -3 c3 -8 1 -15 -4 -15 -6 0 -10 7 -10 15 0 8 2 15 4 15 2 0 6 -7 10 -15z
m143 9 c-3 -3 -12 -4 -19 -1 -8 3 -5 6 6 6 11 1 17 -2 13 -5z m38 -36 c6 -13
17 -22 24 -20 7 1 10 -2 6 -8 -3 -5 0 -10 7 -10 9 -1 7 -5 -4 -14 -16 -12 -16
-15 -2 -32 14 -18 15 -18 10 -1 -3 10 1 25 9 33 13 14 15 13 16 -8 0 -13 2
-33 5 -46 3 -17 0 -21 -8 -16 -27 15 -58 48 -58 61 0 8 -4 11 -10 8 -5 -3 -10
1 -10 9 0 9 -7 16 -15 16 -8 0 -15 5 -15 11 0 6 7 8 16 5 12 -4 14 -1 9 14 -9
27 8 25 20 -2z m-2835 -38 c-8 -5 -22 -9 -30 -9 -10 0 -8 3 5 9 27 12 43 12
25 0z m2658 -2 c-3 -7 -13 -15 -24 -17 -16 -3 -17 -1 -5 13 16 19 34 21 29 4z
m-333 -8 c-3 -5 -12 -10 -18 -10 -7 0 -6 4 3 10 19 12 23 12 15 0z m361 -45
c10 -19 23 -35 29 -35 5 0 4 -4 -3 -9 -8 -4 -13 -11 -13 -15 1 -3 -2 -5 -6 -3
-5 1 -7 7 -5 14 1 7 -6 18 -18 25 -19 12 -29 58 -12 58 5 0 17 -16 28 -35z
m-2796 -17 c0 -6 -3 -8 -7 -5 -3 4 -13 1 -22 -6 -14 -11 -14 -10 -2 6 15 20
31 22 31 5z m3026 -93 c2 -11 8 -40 14 -64 6 -24 8 -46 5 -49 -2 -3 0 -11 6
-19 9 -10 8 -13 -5 -13 -10 0 -14 -4 -11 -10 3 -5 0 -10 -9 -10 -8 0 -16 4
-18 8 -1 4 -28 20 -58 35 -60 29 -107 68 -133 108 -14 24 -14 29 -1 45 11 13
17 15 20 7 3 -7 21 -28 41 -48 40 -40 78 -46 88 -15 4 11 11 18 16 15 9 -6 14
27 11 70 -1 15 3 13 15 -10 9 -16 18 -39 19 -50z m348 53 c-3 -5 -12 -7 -20
-4 -8 3 -14 -1 -14 -9 0 -7 10 -16 23 -18 19 -4 18 -4 -5 -6 -19 -1 -28 4 -28
14 0 8 -7 15 -15 15 -14 0 -20 12 -10 21 9 9 75 -3 69 -13z m166 2 c0 -5 -6
-10 -12 -11 -7 0 2 -5 20 -10 17 -5 32 -16 32 -24 0 -7 10 -16 23 -18 19 -4
18 -4 -5 -6 -16 0 -28 4 -28 9 0 6 -5 10 -12 10 -14 0 -58 40 -58 52 0 4 9 8
20 8 11 0 20 -4 20 -10z m-130 -10 c0 -5 -2 -10 -4 -10 -3 0 -8 5 -11 10 -3 6
-1 10 4 10 6 0 11 -4 11 -10z m-988 -37 c31 -37 29 -134 -4 -155 -60 -38 -100
48 -63 136 17 40 42 47 67 19z m538 7 c0 -5 -5 -10 -11 -10 -5 0 -7 5 -4 10 3
6 8 10 11 10 2 0 4 -4 4 -10z m394 -92 c33 -29 74 -64 89 -79 l28 -26 -28 5
c-29 5 -63 29 -63 44 0 4 -23 30 -52 58 -68 66 -52 64 26 -2z m-129 -38 c3 -5
1 -10 -4 -10 -6 0 -11 5 -11 10 0 6 2 10 4 10 3 0 8 -4 11 -10z m60 -60 c3 -5
-1 -10 -9 -10 -8 0 -18 5 -21 10 -3 6 1 10 9 10 8 0 18 -4 21 -10z m257 -88
c-7 -2 -10 -8 -6 -13 3 -5 -1 -9 -9 -9 -22 0 -29 28 -9 33 20 4 41 -5 24 -11z
m58 -77 c10 -12 10 -15 -3 -15 -8 0 -20 7 -27 15 -10 12 -10 15 3 15 8 0 20
-7 27 -15z m631 -31 l24 -26 -24 4 c-14 2 -27 13 -32 26 -11 29 2 28 32 -4z
m-1568 -391 c28 -31 57 -91 57 -122 0 -27 -35 -36 -64 -17 -26 17 -66 91 -66
122 0 22 18 44 35 44 6 0 23 -12 38 -27z"/>
<path d="M4370 1060 c0 -5 5 -10 10 -10 6 0 10 5 10 10 0 6 -4 10 -10 10 -5 0
-10 -4 -10 -10z"/>
<path d="M4381 1031 c-14 -26 16 -38 38 -16 15 15 14 15 -2 9 -13 -5 -16 -2
-11 10 9 23 -13 20 -25 -3z"/>
<path d="M3780 1036 c0 -14 5 -26 10 -26 6 0 10 9 10 19 0 11 -4 23 -10 26 -6
4 -10 -5 -10 -19z"/>
<path d="M4050 282 c0 -12 19 -26 26 -19 2 2 -2 10 -11 17 -9 8 -15 8 -15 2z"/>
<path d="M3023 2324 c-7 -20 18 -38 29 -21 4 7 1 13 -7 15 -9 2 -13 8 -10 13
4 5 4 9 0 9 -3 0 -8 -7 -12 -16z"/>
<path d="M3875 2310 c3 -5 8 -10 11 -10 2 0 4 5 4 10 0 6 -5 10 -11 10 -5 0
-7 -4 -4 -10z"/>
<path d="M3872 2284 c10 -10 20 -15 24 -12 3 4 -5 12 -18 18 -22 12 -22 12 -6
-6z"/>
<path d="M3775 2260 c3 -5 8 -10 11 -10 2 0 4 5 4 10 0 6 -5 10 -11 10 -5 0
-7 -4 -4 -10z"/>
<path d="M3725 2239 c22 -24 25 -24 25 -1 0 11 -8 18 -21 19 -20 2 -20 1 -4
-18z"/>
<path d="M3370 1991 c29 -16 60 -23 60 -12 0 6 -3 10 -7 10 -5 -1 -10 -1 -13
1 -3 1 -16 3 -30 6 -18 3 -21 1 -10 -5z"/>
<path d="M3480 1960 c0 -5 5 -10 11 -10 5 0 7 5 4 10 -3 6 -8 10 -11 10 -2 0
-4 -4 -4 -10z"/>
<path d="M4109 1861 c13 -24 50 -46 59 -36 7 7 -16 27 -51 46 -16 9 -17 8 -8
-10z"/>
<path d="M3737 1798 c-13 -14 -27 -18 -45 -15 -41 8 -53 -1 -34 -24 20 -23 34
-24 95 -2 48 17 64 43 26 43 -11 0 -17 5 -14 10 11 17 -9 9 -28 -12z"/>
<path d="M4343 1584 c-16 -7 5 -54 24 -54 17 0 17 5 -4 25 -14 14 -14 18 -2
26 15 9 3 11 -18 3z"/>
<path d="M4430 1550 c0 -13 9 -22 25 -26 37 -9 39 -1 5 25 -29 21 -30 21 -30
1z"/>
<path d="M1677 1464 c-16 -9 -27 -17 -25 -20 6 -6 58 20 58 29 0 9 0 9 -33 -9z"/>
<path d="M4660 1310 c0 -5 5 -10 10 -10 6 0 10 5 10 10 0 6 -4 10 -10 10 -5 0
-10 -4 -10 -10z"/>
<path d="M1500 1300 c0 -6 7 -10 15 -10 8 0 15 2 15 4 0 2 -7 6 -15 10 -8 3
-15 1 -15 -4z"/>
<path d="M1330 1244 c0 -8 5 -12 10 -9 6 4 8 11 5 16 -9 14 -15 11 -15 -7z"/>
<path d="M4645 1230 c3 -5 11 -10 16 -10 6 0 7 5 4 10 -3 6 -11 10 -16 10 -6
0 -7 -4 -4 -10z"/>
<path d="M4870 1210 c0 -5 7 -10 16 -10 8 0 12 5 9 10 -3 6 -10 10 -16 10 -5
0 -9 -4 -9 -10z"/>
<path d="M645 904 c-25 -22 -31 -30 -15 -21 42 21 70 41 70 49 0 15 -15 7 -55
-28z"/>
<path d="M5470 889 c0 -5 5 -7 10 -4 6 3 10 8 10 11 0 2 -4 4 -10 4 -5 0 -10
-5 -10 -11z"/>
<path d="M654 853 c-10 -10 -59 -45 -107 -77 -48 -33 -87 -64 -87 -68 0 -5 21
6 48 23 67 46 182 131 182 135 0 9 -18 2 -36 -13z"/>
<path d="M718 813 c-10 -2 -18 -10 -18 -17 0 -6 -13 -20 -30 -29 -16 -10 -30
-23 -30 -28 0 -6 12 -1 26 10 15 12 33 21 41 21 17 0 43 24 43 39 0 11 -3 12
-32 4z"/>
<path d="M435 560 c-3 -5 -1 -10 4 -10 6 0 11 5 11 10 0 6 -2 10 -4 10 -3 0
-8 -4 -11 -10z"/>
<path d="M455 540 c-3 -6 1 -7 9 -4 18 7 21 14 7 14 -6 0 -13 -4 -16 -10z"/>
</g>
</svg>
